inDegrees=no
num_controls=7
num_derivatives=13
num_iterations=136
num_multipliers=7
num_parameters=0
num_slacks=7
num_states=26
objective=0.477037
objective_accelerations=0.044213
objective_balance=0.003678
objective_effort=0.040511
objective_height=0.382969
objective_ligament=0.005665
solver_duration=2037.883339
status=Solve_Succeeded
success=true
DataType=double
version=3
OpenSimVersion=4.5
endheader
time	/jointset/ground_pelvis/pelvis_tilt/value	/jointset/ground_pelvis/pelvis_tx/value	/jointset/ground_pelvis/pelvis_ty/value	/jointset/hip_l/hip_flexion_l/value	/jointset/hip_l/hip_adduction_l/value	/jointset/hip_l/hip_rotation_l/value	/jointset/back/lumbar_extension/value	/jointset/patellofemoral_l/patellar_flexion_l/value	/jointset/knee_l/knee_flexion_l/value	/jointset/knee_l/knee_adduction_l/value	/jointset/knee_l/knee_rotation_l/value	/jointset/ankle_l/ankle_angle_l/value	/jointset/subtalar_l/subtalar_angle_l/value	/jointset/ground_pelvis/pelvis_tilt/speed	/jointset/ground_pelvis/pelvis_tx/speed	/jointset/ground_pelvis/pelvis_ty/speed	/jointset/hip_l/hip_flexion_l/speed	/jointset/hip_l/hip_adduction_l/speed	/jointset/hip_l/hip_rotation_l/speed	/jointset/back/lumbar_extension/speed	/jointset/patellofemoral_l/patellar_flexion_l/speed	/jointset/knee_l/knee_flexion_l/speed	/jointset/knee_l/knee_adduction_l/speed	/jointset/knee_l/knee_rotation_l/speed	/jointset/ankle_l/ankle_angle_l/speed	/jointset/subtalar_l/subtalar_angle_l/speed	/forceset/tau_hip_flexion_l	/forceset/tau_hip_adduction_l	/forceset/tau_hip_rotation_l	/forceset/tau_knee_flexion_l	/forceset/tau_ankle_angle_l	/forceset/tau_subtalar_angle_l	/forceset/tau_lumbar_extension	lambda_cid13_p0	lambda_cid13_p1	lambda_cid13_p2	lambda_cid13_p3	lambda_cid13_p4	lambda_cid13_p5	lambda_cid14_p0	/jointset/ground_pelvis/pelvis_tilt/accel	/jointset/ground_pelvis/pelvis_tx/accel	/jointset/ground_pelvis/pelvis_ty/accel	/jointset/hip_l/hip_flexion_l/accel	/jointset/hip_l/hip_adduction_l/accel	/jointset/hip_l/hip_rotation_l/accel	/jointset/back/lumbar_extension/accel	/jointset/patellofemoral_l/patellar_flexion_l/accel	/jointset/knee_l/knee_flexion_l/accel	/jointset/knee_l/knee_adduction_l/accel	/jointset/knee_l/knee_rotation_l/accel	/jointset/ankle_l/ankle_angle_l/accel	/jointset/subtalar_l/subtalar_angle_l/accel	gamma_cid13_p0	gamma_cid13_p1	gamma_cid13_p2	gamma_cid13_p3	gamma_cid13_p4	gamma_cid13_p5	gamma_cid14_p0
0.5	-0.0951670609562361	-0.04280956616809788	0.8066794908270242	0.9315564653658202	-0.3298329974540247	-0.07890245683248576	-0.7910888034252279	0.9194482520087972	0.9194482520087874	-0.1041054259573834	-0.1745221074532176	0.1468871846802736	0.01236826997127403	-0.1287188578445626	-0.1596797694574869	-0.4152394604890156	1.596699458113669	-0.03011852688297439	0.5628297464560813	-0.8363689068514099	1.774167344884771	1.774167344884739	0.1479274308738322	8.280493437689605e-05	0.4268656134601626	0.112131796235315	-0.2719382895473545	0.02081457470137205	-0.004676546918337022	-0.2480834209398391	0.08824197483936423	0.04547232880003599	0.3283287057737429	-15.80088756687337	-18.58753463979102	4.342947653843719	-9.590368664278726	-702.1065863545539	-75.15819196761717	-9.83059901684444	0.2862305726948136	0.6797531432287308	-0.1865462888766508	-1.527573075109873	0.3314737470676152	-0.509764893070302	1.917942685503534	-1.427284582338173	-1.427284582338183	-0.2194177735886751	-0.003025169906918185	-0.2550292423784982	0.3406903320023998	-2.478547105526975e-07	-1.218156657459368e-07	1.502579193009562e-06	1.436914442818684e-07	-2.728294277923022e-07	-7.987712324742713e-08	-2.105559403068622e-07
0.51	-0.09643978183580373	-0.04437232676979677	0.8025186916353199	0.9474447138886167	-0.3301184183033583	-0.07329869711829286	-0.7993557276003522	0.9371158341466234	0.9371158341465983	-0.1026396825302896	-0.174521242540233	0.1511421029630513	0.01350538223688492	-0.1258072661273849	-0.1528685939473631	-0.4168252513196005	1.580729582081085	-0.026974325739333	0.5578563720143369	-0.8169310718773942	1.75909933839024	1.759099338390214	0.1452172428385718	8.795154466421802e-05	0.4240529281299746	0.115264134038554	-0.2779855567619047	0.02098856978304754	-0.00482487256299436	-0.2519673820516404	0.08765697819702255	0.0455341081989933	0.334472224551054	-16.24820651270579	-18.47551546622913	4.255950891921758	-9.493914559659594	-706.645411615953	-75.0439164319823	-9.111353908782876	0.2963078473322281	0.682392860725434	-0.1303791838211539	-1.664825514874107	0.3043800424298951	-0.5011886555286063	1.969432347734623	-1.583979330407644	-1.583979330406692	-0.2974056034248307	0.002246787645028233	-0.3041506472775097	0.2953630572568816	-2.381791057485186e-07	-1.081428731324809e-07	1.46835094861144e-06	1.405358298284877e-07	-2.589091193340285e-07	-4.979599095858156e-08	-2.053491773263448e-07
0.52	-0.09768284992297795	-0.04586685699523015	0.7983448777945754	0.96316663752158	-0.3303726997923715	-0.06774668413567812	-0.8074257277368595	0.9546252520900256	0.9546252520899834	-0.1012011582405352	-0.174520333718915	0.1553669418987394	0.01467298939108268	-0.1227882993660914	-0.1460336942043823	-0.4178423902970564	1.56343448014684	-0.02389065481899222	0.5524804001405091	-0.796984099128019	1.742534505999828	1.742534505999809	0.1424836034061076	9.158660089045468e-05	0.4208497440422442	0.1182307739526825	-0.2840328239764538	0.02116256486472374	-0.004973198207653656	-0.2558513431634414	0.08707198155468089	0.04559588759795142	0.340615743328366	-16.69776903299388	-18.36341348467675	4.169296443695966	-9.442340645812493	-711.2514985591399	-74.98115212845099	-8.394072641302158	0.3077055815179437	0.684497989800141	-0.07281591825083138	-1.792618255442295	0.3193677024074856	-0.5902843794869708	2.019770240575411	-1.726649761514255	-1.726649761514254	-0.2241080530294324	-0.003327480719143523	-0.3331289938869649	0.3075507541803031	-2.32993029368275e-07	-1.745971003861142e-07	1.399952301962298e-06	1.258034553685011e-07	-2.498001720790933e-07	-4.214652046517805e-08	-2.060934833582625e-07
0.53	-0.09889518283888125	-0.04729303070630141	0.7941637434647318	0.978709132803479	-0.3305964910879594	-0.062250656049005	-0.8152939467982936	0.9719616750114409	0.9719616750114151	-0.09978993554233211	-0.1745196471487747	0.1595577730592082	0.01586936020703587	-0.119660980569464	-0.1392079149385236	-0.4182892220193181	1.544859456607149	-0.02087850970249217	0.5466656274152404	-0.7765949685939764	1.724512012488307	1.724512012488302	0.1397567810890673	4.721175809121309e-05	0.4172491751778024	0.1210122516690629	-0.2899467284774681	0.02147092136378871	-0.005070013830243408	-0.259479582469992	0.08595283289993845	0.04546224990216794	0.3465167547981813	-17.32115082612333	-18.12709672535864	4.052659384250443	-9.106258352550554	-715.6786979522702	-74.70931553581542	-7.68230342049316	0.3178188723364782	0.6806114687832038	-0.01637775448699667	-1.920740672211833	0.2903241562055986	-0.5862023017444041	2.05819614451864	-1.875717718339534	-1.875717718337533	-0.2976086428239996	-0.004499375786225564	-0.3836195222289754	0.2586492202368215	-2.240323542285146e-07	-1.845076954158562e-07	1.351837025828907e-06	1.190695666467576e-07	-2.378364317338331e-07	-1.991659268879931e-08	-2.020338690933308e-07
0.54	-0.100075727798097	-0.04865114790995315	0.789980988626611	0.9940597185961864	-0.3307905236843949	-0.05681460140612435	-0.8229563322174471	0.9891107392832678	0.9891107392832571	-0.09840610893165586	-0.1745193057050071	0.1637105787931314	0.01709258638812687	-0.1164307080287857	-0.1324223927204792	-0.4181664919525078	1.525052582308287	-0.01793891498861907	0.5404857113820685	-0.7558173706719374	1.705062776082043	1.705062776082051	0.1370043859007201	2.256132625574004e-05	0.4132446587331137	0.1236018469802399	-0.2958606329784811	0.02177927786285445	-0.005166829452830076	-0.2631078217765426	0.08483368424519602	0.04532861220638529	0.3524177662679977	-17.94641998792626	-17.89298128020355	3.939266354892141	-8.8174073031572	-720.1616352935836	-74.49123639464113	-6.998480367698452	0.3282963303280881	0.6764465802372944	0.04109643956354983	-2.038988407276472	0.3048576218820895	-0.6633130410676213	2.0974637181747	-2.011998340463003	-2.011998340462998	-0.2292226272908187	0.0006174014736038372	-0.4139185099362802	0.2691742731396138	-2.10895527269714e-07	-1.31859378197888e-07	1.326162925585282e-06	1.211850664013685e-07	-2.227141969056601e-07	1.844490484746714e-08	-1.926592791808211e-07
0.55	-0.1012235145707215	-0.04994162959695874	0.7858023191642868	1.009206203990698	-0.3309554889346961	-0.05144210851421541	-0.8304090790751688	1.006058345523017	1.006058345523027	-0.09704985362492566	-0.1745190721543443	0.1678214596361593	0.01834082015560919	-0.1131121472188387	-0.1256821588901029	-0.417470520055582	1.504043003817488	-0.01506971899866216	0.5339489728343506	-0.7346784241260377	1.684231920487746	1.684231920487748	0.1342441609274503	1.917006395995365e-05	0.4088749067991683	0.1260110724191009	-0.3014364578534864	0.02183363961530991	-0.005223991406570061	-0.2670068242576716	0.08400393742051045	0.04511412128812301	0.3580288188817101	-18.47797995843971	-17.63719462020766	3.819031035857603	-8.553637570903325	-724.553183276861	-74.28241660458269	-6.349682711461962	0.3357913876555678	0.6716041208632297	0.09833674013921731	-2.162192163341254	0.2754319069733022	-0.6586084177592448	2.130146634730074	-2.152574366748904	-2.152574366749865	-0.2998050090492421	-0.001302656928803057	-0.4569907028201567	0.2215840262643453	-1.957563137075782e-07	-8.014431124832695e-08	1.28643201355651e-06	1.216249513534046e-07	-2.05632837125447e-07	5.460697371459477e-08	-1.815084632042182e-07
0.5600000000000001	-0.10233768464898	-0.05116495047837544	0.7816335072560083	1.024136543681631	-0.3310922659612133	-0.04613693383901118	-0.8376488291650449	1.022790854167256	1.022790854167287	-0.09572127708326872	-0.1745189695696737	0.1718869455263085	0.01961210364688116	-0.1097073691557921	-0.118990231602703	-0.4161949811433731	1.481823441592299	-0.01230127023187294	0.5270220680412182	-0.7132180171028408	1.662043256980013	1.662043256980008	0.1314686328860133	-3.631872240902291e-06	0.4041656681573642	0.1282117917381622	-0.3070122827284906	0.02188800136776559	-0.005281153360304884	-0.2709058267388006	0.08317419059582472	0.04489963036986087	0.3636398714954235	-19.01201679787845	-17.38405470040735	3.702737438549699	-8.335893313511761	-729.006420799281	-74.12545470805634	-5.736511262787262	0.3455397809479678	0.6667852716420387	0.157009842620178	-2.280985154154719	0.2847081772485482	-0.7413462901505119	2.161755813634132	-2.283559923150245	-2.283559923150246	-0.232283240924263	-0.003264733307414361	-0.4818158515079556	0.2274730491796897	-1.782142362214403e-07	-2.95491446208546e-08	1.229832927385563e-06	1.200540985423512e-07	-1.862005274027857e-07	8.812972817875593e-08	-1.682261759507033e-07
0.5700000000000001	-0.1034174162215008	-0.05232166074779273	0.777480335325456	1.038838835913159	-0.3312017729657508	-0.04090290860614568	-0.8446724959173417	1.039294864978585	1.039294864978608	-0.09442036869216701	-0.1745190697353208	0.1759037196991669	0.0209044649815453	-0.1062260276869996	-0.1123663237514161	-0.4143432828630252	1.458444532581994	-0.009617766753413328	0.5197230507591812	-0.6914770979097603	1.63854396589507	1.638543965895077	0.1287095764412901	-1.939982525120764e-05	0.39913552454726	0.1302239019516129	-0.3123455431594095	0.02192701645962418	-0.005292283580343171	-0.274710196696145	0.08210275583651648	0.04456042449424776	0.3689513084661371	-19.61995684046741	-17.05953695699416	3.570180969885143	-7.954451343241178	-733.246995103795	-73.86423689963505	-5.159200976276497	0.3513525606528577	0.6580421544250128	0.213633094658782	-2.394936460761302	0.2573520399401237	-0.7333113105417122	2.18599528913634	-2.415322467198021	-2.415322467196213	-0.2982323841897749	-0.0009423184425295383	-0.5216519643482831	0.1824533629290773	-1.604731004903016e-07	2.022142500145645e-08	1.171176228307667e-06	1.181743842738991e-07	-1.670912423297314e-07	1.193246255564822e-07	-1.546399412873883e-07
